<svg width="250" height="240" viewBox="0 0 250 240" fill="none" xmlns="http://www.w3.org/2000/svg">
    <g clip-path="url(#clip0_34_2)">
        <rect width="250" height="240" rx="120" fill="white" fill-opacity="0.1" />
        <path
            d="M99.0297 191.93C95.3617 191.93 92.567 191.319 90.6457 190.096C88.899 189.048 88.0257 187.389 88.0257 185.118V91.322C88.0257 83.986 86.8903 79.0953 84.6197 76.65C82.349 74.03 79.205 72.72 75.1877 72.72C72.2183 72.72 69.6857 73.506 67.5897 75.078C65.6683 76.65 64.0963 78.9207 62.8737 81.89C61.8257 84.8593 61.127 88.3527 60.7777 92.37C60.603 95.1647 59.817 97.2607 58.4197 98.658C57.0223 99.8807 54.7517 100.492 51.6077 100.492C48.813 100.492 46.5423 99.8807 44.7957 98.658C43.049 97.4353 42.263 94.5533 42.4377 90.012C42.787 82.5013 44.359 76.0387 47.1537 70.624C49.7737 65.0347 53.4417 60.7553 58.1577 57.786C63.0483 54.642 68.725 53.07 75.1877 53.07C79.9037 53.07 84.183 53.594 88.0257 54.642C91.8683 55.69 95.187 57.3493 97.9817 59.62C100.776 61.8907 103.047 64.6853 104.794 68.004C106.715 71.3227 108.112 75.2527 108.986 79.794L109.248 81.104C111.169 76.5627 113.44 72.5453 116.06 69.052C118.68 65.384 121.474 62.3273 124.444 59.882C127.413 57.262 130.47 55.3407 133.614 54.118C136.932 52.7207 140.164 52.022 143.308 52.022C145.753 52.022 147.849 52.6333 149.596 53.856C151.517 55.0787 152.478 57.786 152.478 61.978C152.478 66.8687 152.914 70.9733 153.788 74.292C154.836 77.6107 156.233 80.1433 157.98 81.89C159.901 83.462 162.084 84.248 164.53 84.248C168.896 84.248 173.438 82.2393 178.154 78.222C182.87 74.2047 187.411 69.7507 191.778 64.86C193.35 63.1133 195.096 62.502 197.018 63.026C198.939 63.3753 200.686 64.4233 202.258 66.17C204.004 67.9167 205.14 69.838 205.664 71.934C206.188 73.8553 205.838 75.5147 204.616 76.912C198.852 83.8987 192.476 89.8373 185.49 94.728C178.503 99.6187 171.516 102.064 164.53 102.064C159.814 102.064 155.36 101.016 151.168 98.92C147.15 96.824 143.744 93.68 140.95 89.488C138.33 85.296 136.583 80.2307 135.71 74.292C133.09 75.34 130.557 76.9993 128.112 79.27C125.841 81.5407 123.57 84.3353 121.3 87.654C119.204 90.798 117.195 94.466 115.274 98.658C113.527 102.675 111.955 106.955 110.558 111.496V185.118C110.558 187.389 109.597 189.048 107.676 190.096C105.754 191.319 102.872 191.93 99.0297 191.93Z"
            fill="white" />
        <path
            d="M170.68 192.52C164.893 192.52 160.507 190.933 157.52 187.76C154.72 184.773 153.32 180.293 153.32 174.32C153.32 168.16 154.72 163.587 157.52 160.6C160.507 157.613 164.893 156.12 170.68 156.12C176.653 156.12 181.04 157.613 183.84 160.6C186.827 163.587 188.32 168.16 188.32 174.32C188.32 180.293 186.827 184.773 183.84 187.76C181.04 190.933 176.653 192.52 170.68 192.52Z"
            fill="#E9C46A" />
    </g>
    <defs>
        <clipPath id="clip0_34_2">
            <rect width="250" height="240" rx="120" fill="white" />
        </clipPath>
    </defs>
</svg>